<?xml version="1.0" encoding="utf-8"?>
<svg version="1.1" id="Layer_1"
xmlns="http://www.w3.org/2000/svg"
xmlns:xlink="http://www.w3.org/1999/xlink"
width="550px" height="400px"
xml:space="preserve">
<g id="PathID_1" transform="matrix(1.4137, 0, 0, 1.4137, 283.55, 204.7)" opacity="1">
<linearGradient
id="LinearGradID_1" gradientUnits="userSpaceOnUse" gradientTransform="matrix(-2.85455e-009, 0.0653045, -0.0241186, -1.05426e-009, 54.3, -18.9)" spreadMethod ="pad" x1="-819.2" y1="0" x2="819.2" y2="0" >
<stop  offset="0" style="stop-color:#FFFFFF;stop-opacity:1" />
<stop  offset="0.556863" style="stop-color:#00ABF2;stop-opacity:1" />
<stop  offset="0.564706" style="stop-color:#0079C0;stop-opacity:1" />
<stop  offset="1" style="stop-color:#00ABF2;stop-opacity:1" />
</linearGradient>
<path style="fill:url(#LinearGradID_1) " d="M46.7 -19.15Q46.7 -15.5 45.45 -11.9Q44.25 -8.35 42.1 -5.6Q39.9 -2.75 36.8 -1Q33.75 0.75 29.8 0.75Q26.15 0.75 23.85 -0.65Q21.6 -2.05 20.8 -4.7Q18.1 -1.75 15.5 -0.5Q12.95 0.75 9.9 0.75Q7 0.75 5.3 -1.05Q3.65 -2.85 3.65 -5.55Q3.65 -6.55 3.85 -7.45L4.3 -9.4L6 -15.3L6.45 -17.2Q6.7 -18.45 6.7 -19Q6.7 -20.35 6.1 -20.95Q5.55 -21.55 3.9 -21.55Q3.1 -21.55 2.25 -21.25L0.85 -20.8L1.4 -23.05Q3.4 -23.9 5.25 -24.5Q7.15 -25.1 8.8 -25.1Q11.8 -25.1 13.4 -23.6Q15 -22.1 15 -19.8Q15 -19 14.75 -17.45Q14.5 -15.9 14.2 -14.95L12.75 -10.1Q12.5 -9.3 12.3 -8.15Q12.1 -7 12.1 -6.5Q12.1 -5.05 12.85 -4.25Q13.65 -3.45 14.7 -3.45L15.65 -3.5Q16.3 -3.6 16.95 -3.95Q17.65 -4.25 18.65 -4.95Q19.7 -5.7 20.65 -6.75L20.75 -8.05L21.1 -10.15L24.4 -24.65L32.35 -25L32.65 -24.65L29.35 -10.35L29.15 -9.1Q29 -8.15 29 -7.1Q29 -4.95 30.05 -3.95Q31.1 -2.95 33.1 -2.95Q36.55 -2.95 39 -5.45Q41.5 -8 41.5 -12.25L41.45 -13.15L41.25 -14.3Q40.95 -14.85 40.2 -15.45L38.8 -16.65Q38.1 -17.4 37.55 -18.4Q37 -19.45 37 -20.95Q37 -22.2 37.45 -23.05Q37.95 -23.9 38.7 -24.45Q39.3 -24.9 40.15 -25.15Q41.05 -25.4 41.7 -25.4Q44.1 -25.4 45.4 -23.7Q46.7 -22 46.7 -19.15" />
</g>
<g id="PathID_2" transform="matrix(1.4137, 0, 0, 1.4137, 351.1, 204.7)" opacity="1">
<linearGradient
id="LinearGradID_2" gradientUnits="userSpaceOnUse" gradientTransform="matrix(-2.85455e-009, 0.0653045, -0.0241186, -1.05426e-009, 6.5, -18.9)" spreadMethod ="pad" x1="-819.2" y1="0" x2="819.2" y2="0" >
<stop  offset="0" style="stop-color:#FFFFFF;stop-opacity:1" />
<stop  offset="0.556863" style="stop-color:#00ABF2;stop-opacity:1" />
<stop  offset="0.564706" style="stop-color:#0079C0;stop-opacity:1" />
<stop  offset="1" style="stop-color:#00ABF2;stop-opacity:1" />
</linearGradient>
<path style="fill:url(#LinearGradID_2) " d="M13.65 0.85Q10.65 0.85 8.35 0.05Q6.1 -0.75 4.65 -2.2Q3.2 -3.65 2.45 -5.55Q1.75 -7.5 1.75 -9.85Q1.75 -12.8 2.85 -15.55Q3.95 -18.35 6.1 -20.6Q8.15 -22.7 11.3 -24.05Q14.45 -25.4 18.25 -25.4Q22.75 -25.4 25.1 -23.95Q27.45 -22.5 27.45 -19.65Q27.45 -16.95 25.4 -14.95Q23.4 -13 19.9 -12.05Q17.15 -11.25 15.2 -10.9Q13.3 -10.55 10.5 -10.25Q10.55 -9.1 10.8 -7.7Q11.05 -6.35 11.55 -5.4Q12.15 -4.25 13.25 -3.6Q14.35 -2.95 16.05 -2.95Q19 -2.95 21.05 -4.05Q23.1 -5.2 25 -7.7L26.85 -6.15Q24.55 -2.95 21.05 -1.05Q17.55 0.85 13.65 0.85M19.3 -18.95Q19.3 -21.1 18.5 -22.25Q17.75 -23.4 16.35 -23.4Q14.45 -23.4 12.7 -20.25Q11 -17.1 10.55 -12.3L13.45 -12.7Q14.9 -13 15.75 -13.4Q17.65 -14.2 18.45 -15.5Q19.3 -16.8 19.3 -18.95" />
</g>
<g id="PathID_3" transform="matrix(1.4137, 0, 0, 1.4137, 391.35, 204.7)" opacity="1">
<linearGradient
id="LinearGradID_3" gradientUnits="userSpaceOnUse" gradientTransform="matrix(-2.85455e-009, 0.0653045, -0.0241186, -1.05426e-009, -21.95, -18.9)" spreadMethod ="pad" x1="-819.2" y1="0" x2="819.2" y2="0" >
<stop  offset="0" style="stop-color:#FFFFFF;stop-opacity:1" />
<stop  offset="0.556863" style="stop-color:#00ABF2;stop-opacity:1" />
<stop  offset="0.564706" style="stop-color:#0079C0;stop-opacity:1" />
<stop  offset="1" style="stop-color:#00ABF2;stop-opacity:1" />
</linearGradient>
<path style="fill:url(#LinearGradID_3) " d="M31.55 -15.8Q31.55 -12.4 30.4 -9.35Q29.25 -6.3 27.1 -4.1Q24.8 -1.75 21.7 -0.5Q18.6 0.75 14.75 0.75Q13.85 0.75 12.05 0.55Q10.25 0.35 8.85 -0.1Q7.05 -0.75 5.45 -1.9Q3.85 -3.05 2.7 -4.9L8.9 -31.8L9.05 -32.6L9.1 -33.25Q9.1 -34.05 8.75 -34.6Q8.45 -35.15 7.9 -35.5Q7.35 -35.8 6.55 -35.95L4.8 -36.2L5.2 -38.05L18.3 -38.7L18.55 -38.3L14.85 -22.1L15 -22.1L16.25 -23.05Q16.95 -23.55 18.05 -24.15Q18.9 -24.6 20.3 -25Q21.7 -25.4 22.8 -25.4Q27.15 -25.4 29.35 -22.8Q31.55 -20.25 31.55 -15.8M22.6 -15.95Q22.6 -17.15 22.4 -18.15Q22.25 -19.2 21.8 -19.95Q21.35 -20.75 20.55 -21.15Q19.8 -21.6 18.65 -21.6Q17.4 -21.6 16.25 -20.85Q15.1 -20.15 14.2 -19.2L11.1 -5.35Q11.1 -4.75 11.25 -4.1Q11.45 -3.5 11.95 -2.8Q12.45 -2.1 13.05 -1.75Q13.65 -1.4 14.75 -1.4Q16.45 -1.4 17.9 -2.65Q19.4 -3.9 20.4 -5.95Q21.5 -8.1 22.05 -10.5Q22.6 -12.95 22.6 -15.95" />
</g>
<g id="PathID_4" transform="matrix(1.4137, 0, 0, 1.4137, 147, 206.8)" opacity="1">
<linearGradient
id="LinearGradID_4" gradientUnits="userSpaceOnUse" gradientTransform="matrix(-2.63389e-009, 0.0602564, -0.0238782, -1.04375e-009, 47.95, -19.1)" spreadMethod ="pad" x1="-819.2" y1="0" x2="819.2" y2="0" >
<stop  offset="0" style="stop-color:#FFFFFF;stop-opacity:1" />
<stop  offset="0.494118" style="stop-color:#C84DA7;stop-opacity:1" />
<stop  offset="0.505882" style="stop-color:#961B75;stop-opacity:1" />
<stop  offset="1" style="stop-color:#C84DA7;stop-opacity:1" />
</linearGradient>
<path style="fill:url(#LinearGradID_4) " d="M34.65 -11.4L31.3 0L-1.4 0L-0.95 -1.85L0.9 -2L2.75 -2.35Q3.75 -2.7 4.25 -3.35Q4.75 -4 4.95 -4.85L10.65 -29.65L10.8 -30.55L10.85 -31.05Q10.85 -32.1 9.8 -32.7Q8.75 -33.3 6.35 -33.65L6.75 -35.5L26.3 -35.5L25.85 -33.65L23.8 -33.4Q22.55 -33.2 21.9 -33Q20.85 -32.7 20.35 -31.95Q19.9 -31.25 19.7 -30.45L14.25 -6.9L14 -5.45L13.9 -4.4Q13.9 -2.95 14.95 -2.55Q16 -2.15 19.3 -2.15Q21.3 -2.15 23.25 -2.45Q25.2 -2.75 26.2 -3.55Q27.75 -4.8 29.65 -7.1Q31.55 -9.45 32.75 -11.4L34.65 -11.4" />
</g>
<g id="PathID_5" transform="matrix(1.4137, 0, 0, 1.4137, 196.55, 206.8)" opacity="1">
<linearGradient
id="LinearGradID_5" gradientUnits="userSpaceOnUse" gradientTransform="matrix(-2.63389e-009, 0.0602564, -0.0238782, -1.04375e-009, 12.9, -19.1)" spreadMethod ="pad" x1="-819.2" y1="0" x2="819.2" y2="0" >
<stop  offset="0" style="stop-color:#FFFFFF;stop-opacity:1" />
<stop  offset="0.494118" style="stop-color:#C84DA7;stop-opacity:1" />
<stop  offset="0.505882" style="stop-color:#961B75;stop-opacity:1" />
<stop  offset="1" style="stop-color:#C84DA7;stop-opacity:1" />
</linearGradient>
<path style="fill:url(#LinearGradID_5) " d="M33.85 -3.85L33.3 -1.55Q30.8 -0.55 29.3 -0.05Q27.85 0.45 25.9 0.45Q22.95 0.45 21.25 -1Q19.6 -2.5 19.6 -4.7L19.65 -6.25Q19.75 -7.1 20.1 -8.6L21.9 -15.25L22.3 -17.2Q22.45 -18.05 22.45 -18.6Q22.45 -19.8 21.85 -20.5Q21.3 -21.2 19.9 -21.2Q19.05 -21.2 17.5 -20.5Q15.95 -19.85 14 -18.05L9.85 0L1.6 0L8.95 -31.8L9.1 -32.6L9.15 -33.25Q9.15 -34.15 8.85 -34.65Q8.55 -35.2 7.95 -35.5Q7.35 -35.85 6.55 -35.95L4.8 -36.2L5.2 -38.05L18.35 -38.7L18.65 -38.3L14.65 -21L14.8 -21Q17.15 -23.05 19.65 -24.2Q22.15 -25.4 25 -25.4Q27.8 -25.4 29.35 -23.85Q30.95 -22.35 30.95 -20.15L30.85 -18.55Q30.75 -17.5 30.45 -16.35L28.55 -9.3Q28.3 -8.45 28.1 -7.3Q27.9 -6.2 27.9 -5.6Q27.9 -4.15 28.5 -3.6Q29.15 -3.1 30.75 -3.1Q31.5 -3.1 32.45 -3.35Q33.4 -3.6 33.85 -3.85" />
</g>
<g id="PathID_6" transform="matrix(1.4137, 0, 0, 1.4137, 245.45, 206.8)" opacity="1">
<linearGradient
id="LinearGradID_6" gradientUnits="userSpaceOnUse" gradientTransform="matrix(-2.63389e-009, 0.0602564, -0.0238782, -1.04375e-009, -21.65, -19.1)" spreadMethod ="pad" x1="-819.2" y1="0" x2="819.2" y2="0" >
<stop  offset="0" style="stop-color:#FFFFFF;stop-opacity:1" />
<stop  offset="0.494118" style="stop-color:#C84DA7;stop-opacity:1" />
<stop  offset="0.505882" style="stop-color:#961B75;stop-opacity:1" />
<stop  offset="1" style="stop-color:#C84DA7;stop-opacity:1" />
</linearGradient>
<path style="fill:url(#LinearGradID_6) " d="M27.7 -20.2Q27.7 -19.05 27.35 -18Q27.05 -16.95 26.4 -16.2Q25.65 -15.35 24.85 -14.95Q24.05 -14.55 22.6 -14.55Q20.75 -14.55 19.65 -15.45Q18.6 -16.4 18.6 -17.55Q18.6 -18.6 18.9 -19.35L19.9 -21.75Q18.2 -21 16.95 -20Q15.75 -19 14.6 -17.7L10.7 0L2.45 0L5.85 -15.35L6.25 -17.15Q6.5 -18.3 6.5 -19.05Q6.5 -20.5 5.9 -21Q5.35 -21.55 3.8 -21.55Q3 -21.55 2.15 -21.25L0.75 -20.8L1.25 -23.05Q3.3 -23.9 5.15 -24.5Q7 -25.1 8.6 -25.1Q11.55 -25.1 13 -23.9Q14.5 -22.75 14.95 -20.65L15.15 -20.65Q17.6 -23.3 19.35 -24.35Q21.1 -25.4 23.05 -25.4Q25.2 -25.4 26.45 -24.05Q27.7 -22.7 27.7 -20.2" />
</g>
<g id="PathID_7" transform="matrix(0.46875, 0, 0, 0.46875, 244.95, 224.95)" opacity="1">
<path style="fill:#999999;fill-opacity:1" d="M38.55 -23.05Q37.45 -22.95 36.25 -22.15Q35.05 -21.35 34.5 -19.8L32.1 -12.85L29.65 -5.45L28.7 -2.65L27.9 0.2L25.75 0.2L19.1 -17.95L12.4 0.2L10.35 0.2L6.7 -10.8L3.55 -20.3Q3.15 -21.5 2 -22.15Q0.9 -22.85 -0.15 -23L-0.15 -24.65L10.8 -24.65L10.8 -22.9Q10 -22.85 9 -22.6Q8.05 -22.35 8.05 -21.75L8.15 -21.3L8.35 -20.65L10.2 -14.75L12.8 -6.35L19.15 -24.15L21.55 -24.15L27.95 -6.65L30.05 -13.1Q31.15 -16.25 31.95 -19L32.25 -20.15Q32.45 -20.7 32.45 -21.25Q32.45 -21.7 32.05 -22.05Q31.65 -22.4 31.05 -22.6Q30.55 -22.85 29.95 -22.95L29.1 -23.05L29.1 -24.65L38.55 -24.65L38.55 -23.05" />
</g>
<g id="PathID_8" transform="matrix(0.46875, 0, 0, 0.46875, 262.6, 224.95)" opacity="1">
<path style="fill:#999999;fill-opacity:1" d="M38.55 -23.05Q37.45 -22.95 36.25 -22.15Q35.05 -21.35 34.5 -19.8L32.1 -12.85L29.65 -5.45L28.7 -2.65L27.9 0.2L25.75 0.2L19.1 -17.95L12.4 0.2L10.35 0.2L6.7 -10.8L3.55 -20.3Q3.15 -21.5 2 -22.15Q0.9 -22.85 -0.15 -23L-0.15 -24.65L10.8 -24.65L10.8 -22.9Q10 -22.85 9 -22.6Q8.05 -22.35 8.05 -21.75L8.15 -21.3L8.35 -20.65L10.2 -14.75L12.8 -6.35L19.15 -24.15L21.55 -24.15L27.95 -6.65L30.05 -13.1Q31.15 -16.25 31.95 -19L32.25 -20.15Q32.45 -20.7 32.45 -21.25Q32.45 -21.7 32.05 -22.05Q31.65 -22.4 31.05 -22.6Q30.55 -22.85 29.95 -22.95L29.1 -23.05L29.1 -24.65L38.55 -24.65L38.55 -23.05" />
</g>
<g id="PathID_9" transform="matrix(0.46875, 0, 0, 0.46875, 280.25, 224.95)" opacity="1">
<path style="fill:#999999;fill-opacity:1" d="M38.55 -23.05Q37.45 -22.95 36.25 -22.15Q35.05 -21.35 34.5 -19.8L32.1 -12.85L29.65 -5.45L28.7 -2.65L27.9 0.2L25.75 0.2L19.1 -17.95L12.4 0.2L10.35 0.2L6.7 -10.8L3.55 -20.3Q3.15 -21.5 2 -22.15Q0.9 -22.85 -0.15 -23L-0.15 -24.65L10.8 -24.65L10.8 -22.9Q10 -22.85 9 -22.6Q8.05 -22.35 8.05 -21.75L8.15 -21.3L8.35 -20.65L10.2 -14.75L12.8 -6.35L19.15 -24.15L21.55 -24.15L27.95 -6.65L30.05 -13.1Q31.15 -16.25 31.95 -19L32.25 -20.15Q32.45 -20.7 32.45 -21.25Q32.45 -21.7 32.05 -22.05Q31.65 -22.4 31.05 -22.6Q30.55 -22.85 29.95 -22.95L29.1 -23.05L29.1 -24.65L38.55 -24.65L38.55 -23.05" />
</g>
<g id="PathID_10" transform="matrix(0.46875, 0, 0, 0.46875, 297.9, 224.95)" opacity="1">
<path style="fill:#999999;fill-opacity:1" d="M10.4 -2.85Q10.4 -1.45 9.35 -0.45Q8.35 0.5 6.95 0.5Q5.55 0.5 4.55 -0.45Q3.55 -1.45 3.55 -2.85Q3.55 -4.25 4.55 -5.25Q5.55 -6.3 6.95 -6.3Q8.35 -6.3 9.35 -5.25Q10.4 -4.25 10.4 -2.85" />
</g>
<g id="PathID_11" transform="matrix(0.46875, 0, 0, 0.46875, 304.35, 224.95)" opacity="1">
<path style="fill:#999999;fill-opacity:1" d="M13.4 0L1.35 0L1.35 -1.65L2.55 -1.75Q3.2 -1.8 3.65 -1.95Q4.35 -2.15 4.7 -2.7Q5.05 -3.25 5.05 -4.15L5.05 -32.7Q5.05 -33.6 4.65 -34.4Q4.25 -35.2 3.6 -35.65Q3.15 -35.95 1.95 -36.2Q0.75 -36.45 0.05 -36.5L0.05 -38.15L9.35 -38.7L9.75 -38.3L9.75 -4.5Q9.75 -3.6 10.05 -3.05Q10.35 -2.5 11.1 -2.2L12.15 -1.8L13.4 -1.65L13.4 0" />
</g>
<g id="PathID_12" transform="matrix(0.46875, 0, 0, 0.46875, 311.2, 224.95)" opacity="1">
<path style="fill:#999999;fill-opacity:1" d="M28.65 0L16.5 0L16.5 -1.65L17.75 -1.75Q18.45 -1.8 18.9 -1.95Q19.6 -2.15 19.95 -2.7Q20.3 -3.3 20.3 -4.2L20.3 -16.85Q20.3 -19.5 19.05 -20.9Q17.8 -22.35 16.05 -22.35Q14.75 -22.35 13.65 -21.9Q12.55 -21.5 11.65 -20.9Q10.8 -20.3 10.35 -19.65Q9.9 -19.05 9.7 -18.6L9.7 -4.45Q9.7 -3.6 10 -3.05Q10.35 -2.5 11.05 -2.2Q11.6 -1.95 12.2 -1.8L13.5 -1.65L13.5 0L1.35 0L1.35 -1.65L2.5 -1.75Q3.15 -1.8 3.6 -1.95Q4.3 -2.15 4.65 -2.7Q5 -3.25 5 -4.15L5 -32.85Q5 -33.7 4.6 -34.55Q4.2 -35.4 3.55 -35.85Q3.1 -36.15 1.95 -36.3L0.15 -36.5L0.15 -38.15L9.3 -38.7L9.7 -38.3L9.7 -21.1L9.8 -21.1L11.25 -22.55Q11.95 -23.2 13.05 -23.9Q14 -24.5 15.25 -24.9Q16.55 -25.35 18.15 -25.35Q21.45 -25.35 23.2 -23.25Q25 -21.15 25 -17.2L25 -4.4Q25 -3.5 25.3 -2.95Q25.6 -2.45 26.35 -2.15L27.4 -1.8L28.65 -1.65L28.65 0" />
</g>
<g id="PathID_13" transform="matrix(0.46875, 0, 0, 0.46875, 325.15, 224.95)" opacity="1">
<path style="fill:#999999;fill-opacity:1" d="M20.7 -21.45Q20.7 -20.2 20.05 -19.2Q19.4 -18.25 18.1 -18.25Q16.7 -18.25 15.95 -18.95Q15.25 -19.65 15.25 -20.55L15.3 -21.55L15.5 -22.45Q14.3 -22.45 12.75 -21.5Q11.2 -20.55 10.15 -18.8L10.15 -4.45Q10.15 -3.55 10.45 -3Q10.8 -2.45 11.55 -2.2Q12.15 -1.95 13.15 -1.8L14.9 -1.65L14.9 0L1.8 0L1.8 -1.65L2.95 -1.75Q3.6 -1.8 4.05 -1.95Q4.75 -2.15 5.1 -2.7Q5.45 -3.25 5.45 -4.15L5.45 -19.4Q5.45 -20.15 5.05 -20.9Q4.7 -21.65 4.05 -22.1Q3.6 -22.4 2.95 -22.55Q2.3 -22.7 1.55 -22.75L1.55 -24.4L9.75 -24.95L10.15 -24.6L10.15 -21.1L10.25 -21.1Q11.8 -23.15 13.65 -24.2Q15.55 -25.25 17.15 -25.25Q18.7 -25.25 19.7 -24.2Q20.7 -23.2 20.7 -21.45" />
</g>
<g id="PathID_14" transform="matrix(0.46875, 0, 0, 0.46875, 334.95, 224.95)" opacity="1">
<path style="fill:#999999;fill-opacity:1" d="M38.55 -23.05Q37.45 -22.95 36.25 -22.15Q35.05 -21.35 34.5 -19.8L32.1 -12.85L29.65 -5.45L28.7 -2.65L27.9 0.2L25.75 0.2L19.1 -17.95L12.4 0.2L10.35 0.2L6.7 -10.8L3.55 -20.3Q3.15 -21.5 2 -22.15Q0.9 -22.85 -0.15 -23L-0.15 -24.65L10.8 -24.65L10.8 -22.9Q10 -22.85 9 -22.6Q8.05 -22.35 8.05 -21.75L8.15 -21.3L8.35 -20.65L10.2 -14.75L12.8 -6.35L19.15 -24.15L21.55 -24.15L27.95 -6.65L30.05 -13.1Q31.15 -16.25 31.95 -19L32.25 -20.15Q32.45 -20.7 32.45 -21.25Q32.45 -21.7 32.05 -22.05Q31.65 -22.4 31.05 -22.6Q30.55 -22.85 29.95 -22.95L29.1 -23.05L29.1 -24.65L38.55 -24.65L38.55 -23.05" />
</g>
<g id="PathID_15" transform="matrix(0.46875, 0, 0, 0.46875, 352.6, 224.95)" opacity="1">
<path style="fill:#999999;fill-opacity:1" d="M23.7 -5.8Q22.1 -2.85 19.5 -1.1Q16.9 0.65 13.55 0.65Q10.55 0.65 8.3 -0.4Q6.05 -1.45 4.6 -3.25Q3.15 -5.05 2.45 -7.45Q1.75 -9.85 1.75 -12.5Q1.75 -14.9 2.5 -17.2Q3.25 -19.55 4.75 -21.4Q6.15 -23.15 8.25 -24.25Q10.4 -25.35 13.05 -25.35Q15.75 -25.35 17.65 -24.5Q19.6 -23.65 20.8 -22.15Q21.95 -20.75 22.5 -18.85Q23.1 -16.95 23.1 -14.75L23.1 -13.1L6.75 -13.1Q6.75 -10.65 7.2 -8.65Q7.65 -6.7 8.65 -5.2Q9.65 -3.75 11.2 -2.9Q12.8 -2.1 14.95 -2.1Q17.2 -2.1 18.8 -3.1Q20.4 -4.15 21.95 -6.9L23.7 -5.8M18.1 -15.2Q18.1 -16.55 17.85 -18.15Q17.6 -19.75 17.1 -20.85Q16.5 -22 15.5 -22.7Q14.5 -23.45 12.95 -23.45Q10.35 -23.45 8.6 -21.25Q6.85 -19.05 6.75 -15.2L18.1 -15.2" />
</g>
<g id="PathID_16" transform="matrix(0.46875, 0, 0, 0.46875, 364.2, 224.95)" opacity="1">
<path style="fill:#999999;fill-opacity:1" d="M26.85 -12.35Q26.85 -6.8 23.35 -3Q19.85 0.75 15.2 0.75Q13.2 0.75 11.2 0.1Q9.25 -0.5 7.55 -1.55L5.7 1.35L4.15 1L4.3 -3.45L4.35 -8.45L4.35 -32.85Q4.35 -33.7 3.95 -34.55Q3.55 -35.4 2.95 -35.8Q2.5 -36.1 1.35 -36.25L-0.4 -36.5L-0.4 -38.15L8.65 -38.7L9.05 -38.3L9.05 -22.05L9.2 -22Q10.75 -23.65 12.55 -24.5Q14.4 -25.35 16.2 -25.35Q20.75 -25.35 23.8 -21.7Q26.85 -18.1 26.85 -12.35M21.65 -12.2Q21.65 -14.05 21.25 -15.95Q20.85 -17.9 20 -19.3Q19.15 -20.75 17.75 -21.65Q16.4 -22.6 14.45 -22.6Q12.7 -22.6 11.4 -21.9Q10.1 -21.2 9.05 -20L9.05 -5.65Q9.2 -5.05 9.6 -4.25Q10.05 -3.45 10.8 -2.7Q11.55 -2 12.5 -1.55Q13.45 -1.15 14.85 -1.15Q17.9 -1.15 19.75 -4.1Q21.65 -7.05 21.65 -12.2" />
</g>
<g id="PathID_17" transform="matrix(0.46875, 0, 0, 0.46875, 377.65, 224.95)" opacity="1">
<path style="fill:#999999;fill-opacity:1" d="M10.4 -2.85Q10.4 -1.45 9.35 -0.45Q8.35 0.5 6.95 0.5Q5.55 0.5 4.55 -0.45Q3.55 -1.45 3.55 -2.85Q3.55 -4.25 4.55 -5.25Q5.55 -6.3 6.95 -6.3Q8.35 -6.3 9.35 -5.25Q10.4 -4.25 10.4 -2.85" />
</g>
<g id="PathID_18" transform="matrix(0.46875, 0, 0, 0.46875, 384.1, 224.95)" opacity="1">
<path style="fill:#999999;fill-opacity:1" d="M13.15 0.65Q7.8 0.65 4.75 -2.9Q1.75 -6.45 1.75 -12.4Q1.75 -15 2.55 -17.25Q3.35 -19.55 4.9 -21.4Q6.4 -23.15 8.6 -24.25Q10.85 -25.35 13.5 -25.35Q17.1 -25.35 19.4 -23.6Q21.7 -21.85 21.7 -18.85Q21.7 -17.6 21.05 -16.65Q20.45 -15.7 19.1 -15.7Q17.6 -15.7 16.8 -16.4Q16 -17.15 16 -18.1Q16 -19.2 16.3 -20.4Q16.6 -21.6 16.65 -22.15Q16.2 -22.9 15.3 -23.15Q14.4 -23.45 13.4 -23.45Q12.2 -23.45 11.1 -22.9Q10 -22.4 9 -21.05Q8.05 -19.8 7.5 -17.65Q6.95 -15.55 6.95 -12.6Q6.95 -7.95 9 -5Q11.05 -2.1 14.4 -2.1Q16.85 -2.1 18.45 -3.25Q20.1 -4.45 21.5 -6.8L23.15 -5.75Q21.45 -2.8 18.75 -1.05Q16.05 0.65 13.15 0.65" />
</g>
<g id="PathID_19" transform="matrix(0.46875, 0, 0, 0.46875, 394.95, 224.95)" opacity="1">
<path style="fill:#999999;fill-opacity:1" d="M25.85 -12.55Q25.85 -9.95 25 -7.45Q24.15 -4.95 22.65 -3.2Q20.9 -1.2 18.6 -0.2Q16.35 0.75 13.55 0.75Q11.2 0.75 9.05 -0.1Q6.95 -1 5.3 -2.7Q3.65 -4.4 2.7 -6.8Q1.75 -9.2 1.75 -12.2Q1.75 -18 5.1 -21.65Q8.45 -25.35 13.9 -25.35Q19.1 -25.35 22.45 -21.85Q25.85 -18.35 25.85 -12.55M20.65 -12.5Q20.65 -14.4 20.25 -16.45Q19.9 -18.55 19.15 -20Q18.35 -21.55 17.05 -22.5Q15.75 -23.45 13.85 -23.45Q11.95 -23.45 10.55 -22.5Q9.2 -21.55 8.35 -19.9Q7.55 -18.35 7.25 -16.4Q6.95 -14.45 6.95 -12.65Q6.95 -10.25 7.3 -8.2Q7.7 -6.15 8.55 -4.55Q9.4 -2.95 10.65 -2.05Q11.95 -1.15 13.85 -1.15Q17 -1.15 18.8 -4.15Q20.65 -7.2 20.65 -12.5" />
</g>
<g id="PathID_20" transform="matrix(0.46875, 0, 0, 0.46875, 407.85, 224.95)" opacity="1">
<path style="fill:#999999;fill-opacity:1" d="M44.05 0L31.95 0L31.95 -1.65L33.1 -1.75Q33.7 -1.8 34.15 -1.95Q34.9 -2.15 35.25 -2.7Q35.6 -3.3 35.6 -4.2L35.6 -16.9Q35.6 -19.5 34.4 -20.9Q33.2 -22.35 31.4 -22.35Q30.2 -22.35 29.1 -21.95Q28.05 -21.6 27.15 -20.9Q26.4 -20.35 25.9 -19.7L25.2 -18.65L25.2 -4.45Q25.2 -3.55 25.5 -3Q25.8 -2.45 26.55 -2.15Q27.1 -1.9 27.55 -1.8L28.85 -1.65L28.85 0L17 0L17 -1.65L18.1 -1.75Q18.65 -1.8 19.1 -1.95Q19.8 -2.15 20.15 -2.7Q20.5 -3.3 20.5 -4.2L20.5 -16.9Q20.5 -19.5 19.3 -20.9Q18.1 -22.35 16.35 -22.35Q15.1 -22.35 14 -21.95Q12.95 -21.55 12.05 -20.9Q11.35 -20.35 10.85 -19.65L10.1 -18.6L10.1 -4.5Q10.1 -3.65 10.45 -3.05Q10.8 -2.5 11.5 -2.2Q12 -1.95 12.55 -1.8L13.8 -1.65L13.8 0L1.75 0L1.75 -1.65L2.9 -1.75Q3.55 -1.8 4 -1.95Q4.7 -2.15 5.05 -2.7Q5.4 -3.25 5.4 -4.15L5.4 -19.5Q5.4 -20.3 5 -20.9Q4.65 -21.55 4 -22Q3.55 -22.3 2.85 -22.5Q2.15 -22.7 1.4 -22.75L1.4 -24.4L9.65 -24.95L10.05 -24.6L10.05 -21.05L10.2 -21.05L11.7 -22.55Q12.6 -23.4 13.4 -23.9Q14.25 -24.5 15.55 -24.9Q16.9 -25.35 18.4 -25.35Q20.8 -25.35 22.5 -24.05Q24.25 -22.75 25 -20.9L26.6 -22.45Q27.3 -23.1 28.4 -23.85Q29.35 -24.5 30.65 -24.9Q31.95 -25.35 33.5 -25.35Q36.65 -25.35 38.45 -23.25Q40.3 -21.2 40.3 -16.95L40.3 -4.45Q40.3 -3.55 40.6 -3Q40.9 -2.45 41.6 -2.15Q42.2 -1.9 42.75 -1.8L44.05 -1.65L44.05 0" />
</g>
<g id="PathID_21" transform="matrix(1, 0, 0, 1, 196.9, 122.7)" opacity="1">
<linearGradient
id="LinearGradID_7" gradientUnits="userSpaceOnUse" gradientTransform="matrix(0.0915527, 0, -0, 0.0915527, 75, 22.3)" spreadMethod ="pad" x1="-819.2" y1="0" x2="819.2" y2="0" >
<stop  offset="0" style="stop-color:#FFFFFF;stop-opacity:1" />
<stop  offset="0.494118" style="stop-color:#00ABF2;stop-opacity:1" />
<stop  offset="1" style="stop-color:#7EBEE2;stop-opacity:1" />
</linearGradient>
<path style="fill:url(#LinearGradID_7) " d="M149.65 32.3Q135.9 22.6 117.7 28.15Q102.85 32.65 90.95 44.5L79.5 38.75Q80.15 37.15 80.6 32.95Q81.1 28.6 80.7 26.35Q80.05 20.35 73.35 15.45Q67.6 11.2 61.7 10.15Q48.8 7.9 42.85 7.65Q23.35 6.6 0 11.2Q2 10.75 17.4 5.2Q39.45 -0.75 57.9 0.1Q77.4 1.3 87.6 11.95Q93.4 18.05 94.55 25.9Q95 25.5 95.6 25.2Q103.85 20.15 112.45 18.45Q121.55 16.65 129.85 19.55Q138.6 22.6 150 32.1L149.65 32.3" />
</g>
</svg>
